<svg width="352" height="516" viewBox="0 0 352 516" fill="none" xmlns="http://www.w3.org/2000/svg">
<path fill-rule="evenodd" clip-rule="evenodd" d="M51.0352 198.372C52.535 168.812 54.3234 140.696 56.4006 114.023C43.5895 114.59 29.1985 114.752 13.0597 114.476C11.2369 137.04 9.53929 158.316 9.53929 158.316C9.53929 158.316 5.88257 214.903 4.29269 244.15C2.7028 273.079 1.27191 301.849 0 330.461H45.3116C46.9015 285.954 48.8094 241.925 51.0352 198.372Z" fill="#2EB473" fill-opacity="0.55"/>
<path d="M144.52 255.594C149.926 267.357 154.219 277.053 157.398 284.682H194.602C197.781 277.053 201.915 267.357 207.003 255.594C212.408 243.832 218.132 231.116 224.173 217.446C230.215 203.776 236.575 189.788 243.252 175.483C250.248 160.859 256.766 147.189 262.808 134.473C268.849 121.439 274.414 109.836 279.501 99.6627C284.907 89.4898 289.2 81.7012 292.379 76.2968C295.877 113.809 298.739 154.501 300.965 198.372C303.191 241.925 305.098 471.494 306.688 516H352C347.935 292.697 338.486 106.498 327.675 0H287.133C278.547 13.9877 185.857 209.816 176 228.89C168.369 211.724 129.02 125.453 119.799 104.79C109.297 108.214 95.7918 110.828 78.6295 112.494C82.0353 119.302 85.5563 126.629 89.1924 134.473C95.234 147.189 101.593 160.859 108.271 175.483C115.266 189.788 121.785 203.776 127.827 217.446C133.868 231.116 139.433 243.832 144.52 255.594Z" fill="#2EB473" fill-opacity="0.55"/>
<path d="M59.6206 76.2968C46.2727 61.8488 20.5102 9.78621 56.5278 9.78621C92.5454 9.78621 104.57 73.2447 110.59 85.604C96.9551 90.3399 72.9685 90.7448 59.6206 76.2968Z" fill="#2EB473" fill-opacity="0.55"/>
</svg>
